<?xml version="1.0" standalone="no"?>
<!DOCTYPE svg PUBLIC "-//W3C//DTD SVG 20010904//EN"
 "http://www.w3.org/TR/2001/REC-SVG-20010904/DTD/svg10.dtd">
<svg version="1.0" xmlns="http://www.w3.org/2000/svg"
 width="512.000000pt" height="512.000000pt" viewBox="0 0 512.000000 512.000000"
 preserveAspectRatio="xMidYMid meet">

<g transform="translate(0.000000,512.000000) scale(0.100000,-0.100000)"
fill="#000000" stroke="none">
<path d="M612 4859 c-30 -5 -88 -21 -130 -35 -235 -78 -381 -239 -454 -500
l-23 -79 -3 -1090 c-4 -1326 -2 -1361 88 -1551 84 -175 235 -283 514 -366 55
-16 107 -34 113 -40 10 -8 13 -116 13 -479 0 -258 2 -469 5 -469 6 0 658 488
932 697 232 177 285 212 367 241 l71 25 1030 2 c736 2 1052 6 1109 14 242 37
424 117 568 250 145 134 228 291 281 531 20 92 21 127 24 1100 3 689 1 1035
-7 1100 -19 165 -82 320 -176 428 -85 99 -233 181 -385 212 -91 19 -152 20
-1989 19 -1050 -1 -1919 -5 -1948 -10z m3849 -487 c66 -23 103 -55 134 -117
l30 -60 0 -1040 0 -1040 -22 -70 c-56 -177 -184 -287 -372 -321 -61 -11 -287
-13 -1136 -14 -656 0 -1087 -4 -1130 -10 -123 -18 -182 -53 -527 -312 -109
-81 -200 -148 -203 -148 -3 0 -5 105 -5 234 l0 235 -278 3 -278 3 -60 30 c-51
27 -62 38 -89 90 l-30 59 0 1150 0 1151 27 57 c30 64 79 103 156 124 68 18
3729 15 3783 -4z"/>
<path d="M1166 3885 c-113 -31 -166 -112 -166 -255 0 -98 28 -146 105 -185
l60 -30 1255 0 c1171 0 1258 1 1305 18 80 27 124 63 151 120 58 126 6 264
-123 324 -36 17 -114 18 -1288 20 -1029 1 -1259 -1 -1299 -12z"/>
<path d="M1165 2911 c-86 -21 -156 -81 -175 -151 -26 -94 -2 -190 64 -248 82
-72 0 -67 1111 -70 684 -2 1016 1 1051 8 72 15 138 61 163 113 49 103 36 213
-34 283 -78 78 -20 74 -1149 73 -551 -1 -1014 -4 -1031 -8z"/>
</g>
</svg>
