<?xml version="1.0" standalone="no"?>
<!DOCTYPE svg PUBLIC "-//W3C//DTD SVG 20010904//EN"
 "http://www.w3.org/TR/2001/REC-SVG-20010904/DTD/svg10.dtd">
<svg version="1.0" xmlns="http://www.w3.org/2000/svg"
 width="920.000000pt" height="512.000000pt" viewBox="0 0 920.000000 512.000000"
 preserveAspectRatio="xMidYMid meet">

<g transform="translate(0.000000,512.000000) scale(0.100000,-0.100000)"
fill="#000000" stroke="none">
<path d="M2765 4672 c-144 -50 -243 -155 -281 -297 -11 -41 -14 -405 -14
-2000 l0 -1950 428 427 427 428 1545 2 1545 3 68 32 c133 63 225 183 247 323
6 42 10 527 10 1355 0 1383 0 1367 -50 1466 -28 54 -111 142 -164 173 -102 59
17 56 -1930 56 -1663 -1 -1784 -2 -1831 -18z m3115 -1047 l0 -215 -1280 0
-1280 0 0 215 0 215 1280 0 1280 0 0 -215z m0 -640 l0 -215 -1280 0 -1280 0 0
215 0 215 1280 0 1280 0 0 -215z m0 -640 l0 -215 -1280 0 -1280 0 0 215 0 215
1280 0 1280 0 0 -215z"/>
</g>
</svg>
